<svg width="512" height="369" viewBox="0 0 512 369" fill="none" xmlns="http://www.w3.org/2000/svg">
<path d="M502.38 105.327L262.363 1.31935C258.303 -0.439783 253.697 -0.439783 249.638 1.31935L9.61984 105.327C-3.20511 110.884 -3.20811 129.133 9.61984 134.69L95.9883 172.116V272.019C95.9883 325.855 166.273 368.027 256 368.027C345.727 368.027 416.012 325.855 416.012 272.019V172.116L432.013 165.183V336.024C432.013 344.861 439.178 352.025 448.014 352.025C456.851 352.025 464.016 344.861 464.016 336.024V151.315L502.38 134.691C515.205 129.134 515.207 110.885 502.38 105.327V105.327ZM256 33.4397L455.774 120.009L439.93 126.875L257.984 104.131C249.215 103.042 241.218 109.255 240.122 118.024C239.026 126.793 245.246 134.79 254.015 135.886L382.167 151.906L256 206.578C143.135 157.669 167.174 168.086 56.2263 120.008L256 33.4397ZM384.01 272.02C384.01 287.097 371.636 302.619 350.06 314.605C298.675 343.152 213.475 343.236 161.94 314.605C140.365 302.619 127.991 287.097 127.991 272.02V185.985L249.638 238.699C253.69 240.455 258.295 240.461 262.363 238.699L384.01 185.985V272.02Z" fill="#00A106"/>
</svg>
